<svg width="985" height="711" viewBox="0 0 985 711" fill="none" xmlns="http://www.w3.org/2000/svg">
<path d="M964.5 264.5V448.5H805.5V264.5H964.5ZM800.5 403.5V439.5H689.5V403.5H800.5ZM800.5 363.5V398.5H689.5V363.5H800.5ZM800.5 322.5V357.5H689.5V322.5H800.5ZM800.5 281.5V317.5H689.5V281.5H800.5Z" fill="#D9D9D9" stroke="#FA9494" stroke-width="5"/>
<path d="M666.5 288.5V472.5H507.5V288.5H666.5Z" fill="#D9D9D9" stroke="#FA9494" stroke-width="5"/>
<rect x="17.5" y="2.5" width="480" height="44" fill="#FA9494" stroke="#B3B3B3" stroke-width="5"/>
<rect x="502.5" y="2.5" width="480" height="44" fill="#FA9494" stroke="#B3B3B3" stroke-width="5"/>
<path d="M36.0341 23.7273C36.0341 25.2614 35.7571 26.5871 35.2031 27.7045C34.6491 28.822 33.8892 29.6837 32.9233 30.2898C31.9574 30.8958 30.8542 31.1989 29.6136 31.1989C28.3731 31.1989 27.2699 30.8958 26.304 30.2898C25.3381 29.6837 24.5781 28.822 24.0241 27.7045C23.4702 26.5871 23.1932 25.2614 23.1932 23.7273C23.1932 22.1932 23.4702 20.8674 24.0241 19.75C24.5781 18.6326 25.3381 17.7708 26.304 17.1648C27.2699 16.5587 28.3731 16.2557 29.6136 16.2557C30.8542 16.2557 31.9574 16.5587 32.9233 17.1648C33.8892 17.7708 34.6491 18.6326 35.2031 19.75C35.7571 20.8674 36.0341 22.1932 36.0341 23.7273ZM34.3295 23.7273C34.3295 22.4678 34.1188 21.4048 33.6974 20.5384C33.2808 19.6719 32.715 19.0161 32 18.571C31.2898 18.1259 30.4943 17.9034 29.6136 17.9034C28.733 17.9034 27.9351 18.1259 27.2202 18.571C26.5099 19.0161 25.9441 19.6719 25.5227 20.5384C25.1061 21.4048 24.8977 22.4678 24.8977 23.7273C24.8977 24.9867 25.1061 26.0497 25.5227 26.9162C25.9441 27.7827 26.5099 28.4384 27.2202 28.8835C27.9351 29.3286 28.733 29.5511 29.6136 29.5511C30.4943 29.5511 31.2898 29.3286 32 28.8835C32.715 28.4384 33.2808 27.7827 33.6974 26.9162C34.1188 26.0497 34.3295 24.9867 34.3295 23.7273ZM38.9957 31V16.4545H43.9105C45.0516 16.4545 45.9844 16.6605 46.7088 17.0724C47.438 17.4796 47.9777 18.0312 48.3281 18.7273C48.6785 19.4233 48.8537 20.1998 48.8537 21.0568C48.8537 21.9138 48.6785 22.6927 48.3281 23.3935C47.9825 24.0942 47.4474 24.6529 46.723 25.0696C45.9986 25.4815 45.0705 25.6875 43.9389 25.6875H40.4162V24.125H43.8821C44.6634 24.125 45.2907 23.9901 45.7642 23.7202C46.2377 23.4503 46.581 23.0857 46.794 22.6264C47.0118 22.1624 47.1207 21.6392 47.1207 21.0568C47.1207 20.4744 47.0118 19.9536 46.794 19.4943C46.581 19.035 46.2353 18.6752 45.7571 18.4148C45.2789 18.1496 44.6444 18.017 43.8537 18.017H40.7571V31H38.9957ZM63.9638 23.7273C63.9638 25.2614 63.6868 26.5871 63.1328 27.7045C62.5788 28.822 61.8189 29.6837 60.853 30.2898C59.8871 30.8958 58.7839 31.1989 57.5433 31.1989C56.3028 31.1989 55.1996 30.8958 54.2337 30.2898C53.2678 29.6837 52.5078 28.822 51.9538 27.7045C51.3999 26.5871 51.1229 25.2614 51.1229 23.7273C51.1229 22.1932 51.3999 20.8674 51.9538 19.75C52.5078 18.6326 53.2678 17.7708 54.2337 17.1648C55.1996 16.5587 56.3028 16.2557 57.5433 16.2557C58.7839 16.2557 59.8871 16.5587 60.853 17.1648C61.8189 17.7708 62.5788 18.6326 63.1328 19.75C63.6868 20.8674 63.9638 22.1932 63.9638 23.7273ZM62.2592 23.7273C62.2592 22.4678 62.0485 21.4048 61.6271 20.5384C61.2105 19.6719 60.6446 19.0161 59.9297 18.571C59.2195 18.1259 58.424 17.9034 57.5433 17.9034C56.6626 17.9034 55.8648 18.1259 55.1499 18.571C54.4396 19.0161 53.8738 19.6719 53.4524 20.5384C53.0357 21.4048 52.8274 22.4678 52.8274 23.7273C52.8274 24.9867 53.0357 26.0497 53.4524 26.9162C53.8738 27.7827 54.4396 28.4384 55.1499 28.8835C55.8648 29.3286 56.6626 29.5511 57.5433 29.5511C58.424 29.5511 59.2195 29.3286 59.9297 28.8835C60.6446 28.4384 61.2105 27.7827 61.6271 26.9162C62.0485 26.0497 62.2592 24.9867 62.2592 23.7273ZM78.4595 16.4545V31H76.755L68.8288 19.5795H68.6868V31H66.9254V16.4545H68.63L76.5845 27.9034H76.7266V16.4545H78.4595ZM81.984 31V16.4545H90.7624V18.017H83.7454V22.9318H90.3079V24.4943H83.7454V29.4375H90.8761V31H81.984ZM105.471 16.4545V31H103.767L95.8406 19.5795H95.6985V31H93.9371V16.4545H95.6417L103.596 27.9034H103.738V16.4545H105.471ZM108.2 18.017V16.4545H119.109V18.017H114.536V31H112.774V18.017H108.2ZM138.987 16.4545V31H137.282L129.356 19.5795H129.214V31H127.453V16.4545H129.157L137.112 27.9034H137.254V16.4545H138.987ZM143.108 31H141.261L146.602 16.4545H148.42L153.761 31H151.915L147.568 18.7557H147.455L143.108 31ZM143.79 25.3182H151.233V26.8807H143.79V25.3182ZM156.027 16.4545H158.129L163.072 28.5284H163.243L168.186 16.4545H170.288V31H168.641V19.9489H168.499L163.953 31H162.362L157.817 19.9489H157.675V31H156.027V16.4545ZM173.82 31V16.4545H182.598V18.017H175.581V22.9318H182.144V24.4943H175.581V29.4375H182.712V31H173.82Z" fill="white"/>
<path d="M762.034 23.7273C762.034 25.2614 761.757 26.5871 761.203 27.7045C760.649 28.822 759.889 29.6837 758.923 30.2898C757.957 30.8958 756.854 31.1989 755.614 31.1989C754.373 31.1989 753.27 30.8958 752.304 30.2898C751.338 29.6837 750.578 28.822 750.024 27.7045C749.47 26.5871 749.193 25.2614 749.193 23.7273C749.193 22.1932 749.47 20.8674 750.024 19.75C750.578 18.6326 751.338 17.7708 752.304 17.1648C753.27 16.5587 754.373 16.2557 755.614 16.2557C756.854 16.2557 757.957 16.5587 758.923 17.1648C759.889 17.7708 760.649 18.6326 761.203 19.75C761.757 20.8674 762.034 22.1932 762.034 23.7273ZM760.33 23.7273C760.33 22.4678 760.119 21.4048 759.697 20.5384C759.281 19.6719 758.715 19.0161 758 18.571C757.29 18.1259 756.494 17.9034 755.614 17.9034C754.733 17.9034 753.935 18.1259 753.22 18.571C752.51 19.0161 751.944 19.6719 751.523 20.5384C751.106 21.4048 750.898 22.4678 750.898 23.7273C750.898 24.9867 751.106 26.0497 751.523 26.9162C751.944 27.7827 752.51 28.4384 753.22 28.8835C753.935 29.3286 754.733 29.5511 755.614 29.5511C756.494 29.5511 757.29 29.3286 758 28.8835C758.715 28.4384 759.281 27.7827 759.697 26.9162C760.119 26.0497 760.33 24.9867 760.33 23.7273ZM764.996 31V16.4545H769.911C771.052 16.4545 771.984 16.6605 772.709 17.0724C773.438 17.4796 773.978 18.0312 774.328 18.7273C774.679 19.4233 774.854 20.1998 774.854 21.0568C774.854 21.9138 774.679 22.6927 774.328 23.3935C773.982 24.0942 773.447 24.6529 772.723 25.0696C771.999 25.4815 771.071 25.6875 769.939 25.6875H766.416V24.125H769.882C770.663 24.125 771.291 23.9901 771.764 23.7202C772.238 23.4503 772.581 23.0857 772.794 22.6264C773.012 22.1624 773.121 21.6392 773.121 21.0568C773.121 20.4744 773.012 19.9536 772.794 19.4943C772.581 19.035 772.235 18.6752 771.757 18.4148C771.279 18.1496 770.644 18.017 769.854 18.017H766.757V31H764.996ZM789.964 23.7273C789.964 25.2614 789.687 26.5871 789.133 27.7045C788.579 28.822 787.819 29.6837 786.853 30.2898C785.887 30.8958 784.784 31.1989 783.543 31.1989C782.303 31.1989 781.2 30.8958 780.234 30.2898C779.268 29.6837 778.508 28.822 777.954 27.7045C777.4 26.5871 777.123 25.2614 777.123 23.7273C777.123 22.1932 777.4 20.8674 777.954 19.75C778.508 18.6326 779.268 17.7708 780.234 17.1648C781.2 16.5587 782.303 16.2557 783.543 16.2557C784.784 16.2557 785.887 16.5587 786.853 17.1648C787.819 17.7708 788.579 18.6326 789.133 19.75C789.687 20.8674 789.964 22.1932 789.964 23.7273ZM788.259 23.7273C788.259 22.4678 788.049 21.4048 787.627 20.5384C787.21 19.6719 786.645 19.0161 785.93 18.571C785.219 18.1259 784.424 17.9034 783.543 17.9034C782.663 17.9034 781.865 18.1259 781.15 18.571C780.44 19.0161 779.874 19.6719 779.452 20.5384C779.036 21.4048 778.827 22.4678 778.827 23.7273C778.827 24.9867 779.036 26.0497 779.452 26.9162C779.874 27.7827 780.44 28.4384 781.15 28.8835C781.865 29.3286 782.663 29.5511 783.543 29.5511C784.424 29.5511 785.219 29.3286 785.93 28.8835C786.645 28.4384 787.21 27.7827 787.627 26.9162C788.049 26.0497 788.259 24.9867 788.259 23.7273ZM804.46 16.4545V31H802.755L794.829 19.5795H794.687V31H792.925V16.4545H794.63L802.585 27.9034H802.727V16.4545H804.46ZM807.984 31V16.4545H816.762V18.017H809.745V22.9318H816.308V24.4943H809.745V29.4375H816.876V31H807.984ZM831.471 16.4545V31H829.767L821.841 19.5795H821.699V31H819.937V16.4545H821.642L829.596 27.9034H829.738V16.4545H831.471ZM834.2 18.017V16.4545H845.109V18.017H840.536V31H838.774V18.017H834.2ZM857.941 31H853.453V16.4545H858.14C859.551 16.4545 860.759 16.7457 861.762 17.3281C862.766 17.9058 863.536 18.7367 864.071 19.821C864.606 20.9006 864.873 22.1932 864.873 23.6989C864.873 25.214 864.603 26.5185 864.064 27.6122C863.524 28.7012 862.738 29.5393 861.706 30.1264C860.673 30.7088 859.419 31 857.941 31ZM855.214 29.4375H857.828C859.03 29.4375 860.027 29.2055 860.818 28.7415C861.609 28.2775 862.198 27.617 862.586 26.7599C862.975 25.9029 863.169 24.8826 863.169 23.6989C863.169 22.5246 862.977 21.5137 862.593 20.6662C862.21 19.8139 861.637 19.1605 860.875 18.706C860.112 18.2467 859.163 18.017 858.027 18.017H855.214V29.4375ZM867.828 31V16.4545H876.606V18.017H869.589V22.9318H876.152V24.4943H869.589V29.4375H876.72V31H867.828ZM891.485 21H889.724C889.62 20.4934 889.438 20.0483 889.177 19.6648C888.922 19.2812 888.609 18.9593 888.24 18.6989C887.875 18.4337 887.47 18.2348 887.025 18.1023C886.58 17.9697 886.116 17.9034 885.633 17.9034C884.752 17.9034 883.955 18.1259 883.24 18.571C882.529 19.0161 881.964 19.6719 881.542 20.5384C881.126 21.4048 880.917 22.4678 880.917 23.7273C880.917 24.9867 881.126 26.0497 881.542 26.9162C881.964 27.7827 882.529 28.4384 883.24 28.8835C883.955 29.3286 884.752 29.5511 885.633 29.5511C886.116 29.5511 886.58 29.4848 887.025 29.3523C887.47 29.2197 887.875 29.0232 888.24 28.7628C888.609 28.4976 888.922 28.1733 889.177 27.7898C889.438 27.4015 889.62 26.9564 889.724 26.4545H891.485C891.353 27.1979 891.111 27.8632 890.761 28.4503C890.411 29.0374 889.975 29.5369 889.454 29.9489C888.933 30.3561 888.349 30.6662 887.7 30.8793C887.056 31.0923 886.367 31.1989 885.633 31.1989C884.393 31.1989 883.289 30.8958 882.324 30.2898C881.358 29.6837 880.598 28.822 880.044 27.7045C879.49 26.5871 879.213 25.2614 879.213 23.7273C879.213 22.1932 879.49 20.8674 880.044 19.75C880.598 18.6326 881.358 17.7708 882.324 17.1648C883.289 16.5587 884.393 16.2557 885.633 16.2557C886.367 16.2557 887.056 16.3622 887.7 16.5753C888.349 16.7884 888.933 17.1009 889.454 17.5128C889.975 17.92 890.411 18.4171 890.761 19.0043C891.111 19.5866 891.353 20.2519 891.485 21ZM894.332 31V16.4545H896.093V23.6705H896.263L902.798 16.4545H905.099L898.991 23.017L905.099 31H902.968L897.911 24.2386L896.093 26.2841V31H894.332ZM924.538 16.4545V31H922.833L914.907 19.5795H914.765V31H913.004V16.4545H914.708L922.663 27.9034H922.805V16.4545H924.538ZM928.659 31H926.812L932.153 16.4545H933.971L939.312 31H937.466L933.119 18.7557H933.005L928.659 31ZM929.341 25.3182H936.784V26.8807H929.341V25.3182ZM941.578 16.4545H943.68L948.623 28.5284H948.794L953.737 16.4545H955.839V31H954.191V19.9489H954.049L949.504 31H947.913L943.368 19.9489H943.225V31H941.578V16.4545ZM959.371 31V16.4545H968.149V18.017H961.132V22.9318H967.695V24.4943H961.132V29.4375H968.263V31H959.371Z" fill="white"/>
<rect x="161.5" y="51.5" width="159" height="184" fill="#D9D9D9" stroke="#FA9494" stroke-width="5"/>
<rect x="17.5" y="73.5" width="139" height="43" fill="#D9D9D9" stroke="#FA9494" stroke-width="5"/>
<rect x="17.5" y="121.5" width="139" height="43" fill="#D9D9D9" stroke="#FA9494" stroke-width="5"/>
<rect x="17.5" y="169.5" width="139" height="43" fill="#D9D9D9" stroke="#FA9494" stroke-width="5"/>
<rect x="653.5" y="51.5" width="159" height="184" fill="#D9D9D9" stroke="#FA9494" stroke-width="5"/>
<rect x="489.5" y="51.5" width="159" height="184" fill="#D9D9D9" stroke="#FA9494" stroke-width="5"/>
<rect x="325.5" y="51.5" width="159" height="184" fill="#D9D9D9" stroke="#FA9494" stroke-width="5"/>
<path d="M897.5 140.5V205.5H817.5V140.5H897.5Z" fill="#D9D9D9" stroke="#FA9494" stroke-width="5"/>
<path d="M857.25 186.358C855.324 186.358 853.683 185.834 852.328 184.786C850.973 183.729 849.938 182.199 849.222 180.196C848.506 178.185 848.148 175.756 848.148 172.909C848.148 170.08 848.506 167.663 849.222 165.661C849.946 163.649 850.986 162.115 852.341 161.058C853.705 159.993 855.341 159.46 857.25 159.46C859.159 159.46 860.791 159.993 862.146 161.058C863.51 162.115 864.55 163.649 865.266 165.661C865.99 167.663 866.352 170.08 866.352 172.909C866.352 175.756 865.994 178.185 865.278 180.196C864.562 182.199 863.527 183.729 862.172 184.786C860.817 185.834 859.176 186.358 857.25 186.358ZM857.25 183.545C859.159 183.545 860.642 182.625 861.699 180.784C862.756 178.943 863.284 176.318 863.284 172.909C863.284 170.642 863.041 168.712 862.555 167.118C862.078 165.524 861.388 164.31 860.484 163.474C859.589 162.639 858.511 162.222 857.25 162.222C855.358 162.222 853.879 163.155 852.814 165.021C851.749 166.879 851.216 169.509 851.216 172.909C851.216 175.176 851.455 177.102 851.932 178.688C852.409 180.273 853.095 181.479 853.99 182.305C854.893 183.132 855.98 183.545 857.25 183.545Z" fill="#D72D2D"/>
<path d="M897.5 75.5V140.5H817.5V75.5H897.5Z" fill="#D9D9D9" stroke="#FA9494" stroke-width="5"/>
<path d="M857.25 121.358C855.324 121.358 853.683 120.834 852.328 119.786C850.973 118.729 849.938 117.199 849.222 115.196C848.506 113.185 848.148 110.756 848.148 107.909C848.148 105.08 848.506 102.663 849.222 100.661C849.946 98.6491 850.986 97.1151 852.341 96.0582C853.705 94.9929 855.341 94.4602 857.25 94.4602C859.159 94.4602 860.791 94.9929 862.146 96.0582C863.51 97.1151 864.55 98.6491 865.266 100.661C865.99 102.663 866.352 105.08 866.352 107.909C866.352 110.756 865.994 113.185 865.278 115.196C864.562 117.199 863.527 118.729 862.172 119.786C860.817 120.834 859.176 121.358 857.25 121.358ZM857.25 118.545C859.159 118.545 860.642 117.625 861.699 115.784C862.756 113.943 863.284 111.318 863.284 107.909C863.284 105.642 863.041 103.712 862.555 102.118C862.078 100.524 861.388 99.3097 860.484 98.4744C859.589 97.6392 858.511 97.2216 857.25 97.2216C855.358 97.2216 853.879 98.1548 852.814 100.021C851.749 101.879 851.216 104.509 851.216 107.909C851.216 110.176 851.455 112.102 851.932 113.688C852.409 115.273 853.095 116.479 853.99 117.305C854.893 118.132 855.98 118.545 857.25 118.545Z" fill="#D72D2D"/>
<path d="M982.5 140.5V205.5H902.5V140.5H982.5Z" fill="#D9D9D9" stroke="#FA9494" stroke-width="5"/>
<path d="M942.25 186.358C940.324 186.358 938.683 185.834 937.328 184.786C935.973 183.729 934.938 182.199 934.222 180.196C933.506 178.185 933.148 175.756 933.148 172.909C933.148 170.08 933.506 167.663 934.222 165.661C934.946 163.649 935.986 162.115 937.341 161.058C938.705 159.993 940.341 159.46 942.25 159.46C944.159 159.46 945.791 159.993 947.146 161.058C948.51 162.115 949.55 163.649 950.266 165.661C950.99 167.663 951.352 170.08 951.352 172.909C951.352 175.756 950.994 178.185 950.278 180.196C949.562 182.199 948.527 183.729 947.172 184.786C945.817 185.834 944.176 186.358 942.25 186.358ZM942.25 183.545C944.159 183.545 945.642 182.625 946.699 180.784C947.756 178.943 948.284 176.318 948.284 172.909C948.284 170.642 948.041 168.712 947.555 167.118C947.078 165.524 946.388 164.31 945.484 163.474C944.589 162.639 943.511 162.222 942.25 162.222C940.358 162.222 938.879 163.155 937.814 165.021C936.749 166.879 936.216 169.509 936.216 172.909C936.216 175.176 936.455 177.102 936.932 178.688C937.409 180.273 938.095 181.479 938.99 182.305C939.893 183.132 940.98 183.545 942.25 183.545Z" fill="#D72D2D"/>
<path d="M982.5 75.5V140.5H902.5V75.5H982.5Z" fill="#D9D9D9" stroke="#FA9494" stroke-width="5"/>
<path d="M942.25 121.358C940.324 121.358 938.683 120.834 937.328 119.786C935.973 118.729 934.938 117.199 934.222 115.196C933.506 113.185 933.148 110.756 933.148 107.909C933.148 105.08 933.506 102.663 934.222 100.661C934.946 98.6491 935.986 97.1151 937.341 96.0582C938.705 94.9929 940.341 94.4602 942.25 94.4602C944.159 94.4602 945.791 94.9929 947.146 96.0582C948.51 97.1151 949.55 98.6491 950.266 100.661C950.99 102.663 951.352 105.08 951.352 107.909C951.352 110.756 950.994 113.185 950.278 115.196C949.562 117.199 948.527 118.729 947.172 119.786C945.817 120.834 944.176 121.358 942.25 121.358ZM942.25 118.545C944.159 118.545 945.642 117.625 946.699 115.784C947.756 113.943 948.284 111.318 948.284 107.909C948.284 105.642 948.041 103.712 947.555 102.118C947.078 100.524 946.388 99.3097 945.484 98.4744C944.589 97.6392 943.511 97.2216 942.25 97.2216C940.358 97.2216 938.879 98.1548 937.814 100.021C936.749 101.879 936.216 104.509 936.216 107.909C936.216 110.176 936.455 112.102 936.932 113.688C937.409 115.273 938.095 116.479 938.99 117.305C939.893 118.132 940.98 118.545 942.25 118.545Z" fill="#D72D2D"/>
<rect x="2.5" y="-2.5" width="159" height="173" transform="matrix(1 0 0 -1 301 462)" fill="#D9D9D9" stroke="#613DFF" stroke-width="5"/>
<rect x="2.5" y="-2.5" width="159" height="173" transform="matrix(1 0 0 -1 15 445)" fill="#D9D9D9" stroke="#613DFF" stroke-width="5"/>
<rect x="180.5" y="290.5" width="113" height="38" fill="#D9D9D9" stroke="#613DFF" stroke-width="3"/>
<rect x="180.5" y="412.5" width="113" height="38" fill="#D9D9D9" stroke="#613DFF" stroke-width="3"/>
<rect x="180.5" y="371.5" width="113" height="38" fill="#D9D9D9" stroke="#613DFF" stroke-width="3"/>
<rect x="180.5" y="331.5" width="113" height="38" fill="#D9D9D9" stroke="#613DFF" stroke-width="3"/>
<rect x="2.5" y="-2.5" width="480" height="41" transform="matrix(1 0 0 -1 0 706)" fill="#613DFF" stroke="#B3B3B3" stroke-width="5"/>
<rect x="2.5" y="-2.5" width="480" height="41" transform="matrix(1 0 0 -1 485 706)" fill="#613DFF" stroke="#B3B3B3" stroke-width="5"/>
<path d="M21.0341 687.273C21.0341 685.739 20.7571 684.413 20.2031 683.295C19.6491 682.178 18.8892 681.316 17.9233 680.71C16.9574 680.104 15.8542 679.801 14.6136 679.801C13.3731 679.801 12.2699 680.104 11.304 680.71C10.3381 681.316 9.57813 682.178 9.02415 683.295C8.47017 684.413 8.19318 685.739 8.19318 687.273C8.19318 688.807 8.47017 690.133 9.02415 691.25C9.57813 692.367 10.3381 693.229 11.304 693.835C12.2699 694.441 13.3731 694.744 14.6136 694.744C15.8542 694.744 16.9574 694.441 17.9233 693.835C18.8892 693.229 19.6491 692.367 20.2031 691.25C20.7571 690.133 21.0341 688.807 21.0341 687.273ZM19.3295 687.273C19.3295 688.532 19.1188 689.595 18.6974 690.462C18.2808 691.328 17.715 691.984 17 692.429C16.2898 692.874 15.4943 693.097 14.6136 693.097C13.733 693.097 12.9351 692.874 12.2202 692.429C11.5099 691.984 10.9441 691.328 10.5227 690.462C10.1061 689.595 9.89773 688.532 9.89773 687.273C9.89773 686.013 10.1061 684.95 10.5227 684.084C10.9441 683.217 11.5099 682.562 12.2202 682.116C12.9351 681.671 13.733 681.449 14.6136 681.449C15.4943 681.449 16.2898 681.671 17 682.116C17.715 682.562 18.2808 683.217 18.6974 684.084C19.1188 684.95 19.3295 686.013 19.3295 687.273ZM23.9957 680V694.545H28.9105C30.0516 694.545 30.9844 694.339 31.7088 693.928C32.438 693.52 32.9777 692.969 33.3281 692.273C33.6785 691.577 33.8537 690.8 33.8537 689.943C33.8537 689.086 33.6785 688.307 33.3281 687.607C32.9825 686.906 32.4474 686.347 31.723 685.93C30.9986 685.518 30.0705 685.312 28.9389 685.312H25.4162V686.875H28.8821C29.6634 686.875 30.2907 687.01 30.7642 687.28C31.2377 687.55 31.581 687.914 31.794 688.374C32.0118 688.838 32.1207 689.361 32.1207 689.943C32.1207 690.526 32.0118 691.046 31.794 691.506C31.581 691.965 31.2353 692.325 30.7571 692.585C30.2789 692.85 29.6444 692.983 28.8537 692.983H25.7571V680H23.9957ZM48.9638 687.273C48.9638 685.739 48.6868 684.413 48.1328 683.295C47.5788 682.178 46.8189 681.316 45.853 680.71C44.8871 680.104 43.7839 679.801 42.5433 679.801C41.3028 679.801 40.1996 680.104 39.2337 680.71C38.2678 681.316 37.5078 682.178 36.9538 683.295C36.3999 684.413 36.1229 685.739 36.1229 687.273C36.1229 688.807 36.3999 690.133 36.9538 691.25C37.5078 692.367 38.2678 693.229 39.2337 693.835C40.1996 694.441 41.3028 694.744 42.5433 694.744C43.7839 694.744 44.8871 694.441 45.853 693.835C46.8189 693.229 47.5788 692.367 48.1328 691.25C48.6868 690.133 48.9638 688.807 48.9638 687.273ZM47.2592 687.273C47.2592 688.532 47.0485 689.595 46.6271 690.462C46.2105 691.328 45.6446 691.984 44.9297 692.429C44.2195 692.874 43.424 693.097 42.5433 693.097C41.6626 693.097 40.8648 692.874 40.1499 692.429C39.4396 691.984 38.8738 691.328 38.4524 690.462C38.0357 689.595 37.8274 688.532 37.8274 687.273C37.8274 686.013 38.0357 684.95 38.4524 684.084C38.8738 683.217 39.4396 682.562 40.1499 682.116C40.8648 681.671 41.6626 681.449 42.5433 681.449C43.424 681.449 44.2195 681.671 44.9297 682.116C45.6446 682.562 46.2105 683.217 46.6271 684.084C47.0485 684.95 47.2592 686.013 47.2592 687.273ZM63.4595 694.545V680H61.755L53.8288 691.42H53.6868V680H51.9254V694.545H53.63L61.5845 683.097H61.7266V694.545H63.4595ZM66.984 680V694.545H75.7624V692.983H68.7454V688.068H75.3079V686.506H68.7454V681.562H75.8761V680H66.984ZM90.4712 694.545V680H88.7667L80.8406 691.42H80.6985V680H78.9371V694.545H80.6417L88.5962 683.097H88.7383V694.545H90.4712ZM93.2003 692.983V694.545H104.109V692.983H99.5355V680H97.7741V692.983H93.2003ZM123.987 694.545V680H122.282L114.356 691.42H114.214V680H112.453V694.545H114.157L122.112 683.097H122.254V694.545H123.987ZM128.108 680H126.261L131.602 694.545H133.42L138.761 680H136.915L132.568 692.244H132.455L128.108 680ZM128.79 685.682H136.233V684.119H128.79V685.682ZM141.027 694.545H143.129L148.072 682.472H148.243L153.186 694.545H155.288V680H153.641V691.051H153.499L148.953 680H147.362L142.817 691.051H142.675V680H141.027V694.545ZM158.82 680V694.545H167.598V692.983H160.581V688.068H167.144V686.506H160.581V681.562H167.712V680H158.82Z" fill="white"/>
<path d="M747.034 687.273C747.034 685.739 746.757 684.413 746.203 683.295C745.649 682.178 744.889 681.316 743.923 680.71C742.957 680.104 741.854 679.801 740.614 679.801C739.373 679.801 738.27 680.104 737.304 680.71C736.338 681.316 735.578 682.178 735.024 683.295C734.47 684.413 734.193 685.739 734.193 687.273C734.193 688.807 734.47 690.133 735.024 691.25C735.578 692.367 736.338 693.229 737.304 693.835C738.27 694.441 739.373 694.744 740.614 694.744C741.854 694.744 742.957 694.441 743.923 693.835C744.889 693.229 745.649 692.367 746.203 691.25C746.757 690.133 747.034 688.807 747.034 687.273ZM745.33 687.273C745.33 688.532 745.119 689.595 744.697 690.462C744.281 691.328 743.715 691.984 743 692.429C742.29 692.874 741.494 693.097 740.614 693.097C739.733 693.097 738.935 692.874 738.22 692.429C737.51 691.984 736.944 691.328 736.523 690.462C736.106 689.595 735.898 688.532 735.898 687.273C735.898 686.013 736.106 684.95 736.523 684.084C736.944 683.217 737.51 682.562 738.22 682.116C738.935 681.671 739.733 681.449 740.614 681.449C741.494 681.449 742.29 681.671 743 682.116C743.715 682.562 744.281 683.217 744.697 684.084C745.119 684.95 745.33 686.013 745.33 687.273ZM749.996 680V694.545H754.911C756.052 694.545 756.984 694.339 757.709 693.928C758.438 693.52 758.978 692.969 759.328 692.273C759.679 691.577 759.854 690.8 759.854 689.943C759.854 689.086 759.679 688.307 759.328 687.607C758.982 686.906 758.447 686.347 757.723 685.93C756.999 685.518 756.071 685.312 754.939 685.312H751.416V686.875H754.882C755.663 686.875 756.291 687.01 756.764 687.28C757.238 687.55 757.581 687.914 757.794 688.374C758.012 688.838 758.121 689.361 758.121 689.943C758.121 690.526 758.012 691.046 757.794 691.506C757.581 691.965 757.235 692.325 756.757 692.585C756.279 692.85 755.644 692.983 754.854 692.983H751.757V680H749.996ZM774.964 687.273C774.964 685.739 774.687 684.413 774.133 683.295C773.579 682.178 772.819 681.316 771.853 680.71C770.887 680.104 769.784 679.801 768.543 679.801C767.303 679.801 766.2 680.104 765.234 680.71C764.268 681.316 763.508 682.178 762.954 683.295C762.4 684.413 762.123 685.739 762.123 687.273C762.123 688.807 762.4 690.133 762.954 691.25C763.508 692.367 764.268 693.229 765.234 693.835C766.2 694.441 767.303 694.744 768.543 694.744C769.784 694.744 770.887 694.441 771.853 693.835C772.819 693.229 773.579 692.367 774.133 691.25C774.687 690.133 774.964 688.807 774.964 687.273ZM773.259 687.273C773.259 688.532 773.049 689.595 772.627 690.462C772.21 691.328 771.645 691.984 770.93 692.429C770.219 692.874 769.424 693.097 768.543 693.097C767.663 693.097 766.865 692.874 766.15 692.429C765.44 691.984 764.874 691.328 764.452 690.462C764.036 689.595 763.827 688.532 763.827 687.273C763.827 686.013 764.036 684.95 764.452 684.084C764.874 683.217 765.44 682.562 766.15 682.116C766.865 681.671 767.663 681.449 768.543 681.449C769.424 681.449 770.219 681.671 770.93 682.116C771.645 682.562 772.21 683.217 772.627 684.084C773.049 684.95 773.259 686.013 773.259 687.273ZM789.46 694.545V680H787.755L779.829 691.42H779.687V680H777.925V694.545H779.63L787.585 683.097H787.727V694.545H789.46ZM792.984 680V694.545H801.762V692.983H794.745V688.068H801.308V686.506H794.745V681.562H801.876V680H792.984ZM816.471 694.545V680H814.767L806.841 691.42H806.699V680H804.937V694.545H806.642L814.596 683.097H814.738V694.545H816.471ZM819.2 692.983V694.545H830.109V692.983H825.536V680H823.774V692.983H819.2ZM842.941 680H838.453V694.545H843.14C844.551 694.545 845.759 694.254 846.762 693.672C847.766 693.094 848.536 692.263 849.071 691.179C849.606 690.099 849.873 688.807 849.873 687.301C849.873 685.786 849.603 684.482 849.064 683.388C848.524 682.299 847.738 681.461 846.706 680.874C845.673 680.291 844.419 680 842.941 680ZM840.214 681.562H842.828C844.03 681.562 845.027 681.795 845.818 682.259C846.609 682.723 847.198 683.383 847.586 684.24C847.975 685.097 848.169 686.117 848.169 687.301C848.169 688.475 847.977 689.486 847.593 690.334C847.21 691.186 846.637 691.839 845.875 692.294C845.112 692.753 844.163 692.983 843.027 692.983H840.214V681.562ZM852.828 680V694.545H861.606V692.983H854.589V688.068H861.152V686.506H854.589V681.562H861.72V680H852.828ZM876.485 690H874.724C874.62 690.507 874.438 690.952 874.177 691.335C873.922 691.719 873.609 692.041 873.24 692.301C872.875 692.566 872.47 692.765 872.025 692.898C871.58 693.03 871.116 693.097 870.633 693.097C869.752 693.097 868.955 692.874 868.24 692.429C867.529 691.984 866.964 691.328 866.542 690.462C866.126 689.595 865.917 688.532 865.917 687.273C865.917 686.013 866.126 684.95 866.542 684.084C866.964 683.217 867.529 682.562 868.24 682.116C868.955 681.671 869.752 681.449 870.633 681.449C871.116 681.449 871.58 681.515 872.025 681.648C872.47 681.78 872.875 681.977 873.24 682.237C873.609 682.502 873.922 682.827 874.177 683.21C874.438 683.598 874.62 684.044 874.724 684.545H876.485C876.353 683.802 876.111 683.137 875.761 682.55C875.411 681.963 874.975 681.463 874.454 681.051C873.933 680.644 873.349 680.334 872.7 680.121C872.056 679.908 871.367 679.801 870.633 679.801C869.393 679.801 868.289 680.104 867.324 680.71C866.358 681.316 865.598 682.178 865.044 683.295C864.49 684.413 864.213 685.739 864.213 687.273C864.213 688.807 864.49 690.133 865.044 691.25C865.598 692.367 866.358 693.229 867.324 693.835C868.289 694.441 869.393 694.744 870.633 694.744C871.367 694.744 872.056 694.638 872.7 694.425C873.349 694.212 873.933 693.899 874.454 693.487C874.975 693.08 875.411 692.583 875.761 691.996C876.111 691.413 876.353 690.748 876.485 690ZM879.332 680V694.545H881.093V687.33H881.263L887.798 694.545H890.099L883.991 687.983L890.099 680H887.968L882.911 686.761L881.093 684.716V680H879.332ZM909.538 694.545V680H907.833L899.907 691.42H899.765V680H898.004V694.545H899.708L907.663 683.097H907.805V694.545H909.538ZM913.659 680H911.812L917.153 694.545H918.971L924.312 680H922.466L918.119 692.244H918.005L913.659 680ZM914.341 685.682H921.784V684.119H914.341V685.682ZM926.578 694.545H928.68L933.623 682.472H933.794L938.737 694.545H940.839V680H939.191V691.051H939.049L934.504 680H932.913L928.368 691.051H928.225V680H926.578V694.545ZM944.371 680V694.545H953.149V692.983H946.132V688.068H952.695V686.506H946.132V681.562H953.263V680H944.371Z" fill="white"/>
<rect x="2.5" y="-2.5" width="159" height="173" transform="matrix(1 0 0 -1 170 660)" fill="#D9D9D9" stroke="#613DFF" stroke-width="5"/>
<rect x="2.5" y="-2.5" width="139" height="40" transform="matrix(1 0 0 -1 826 638)" fill="#D9D9D9" stroke="#613DFF" stroke-width="5"/>
<rect x="2.5" y="-2.5" width="139" height="40" transform="matrix(1 0 0 -1 826 593)" fill="#D9D9D9" stroke="#613DFF" stroke-width="5"/>
<rect x="2.5" y="-2.5" width="139" height="40" transform="matrix(1 0 0 -1 826 548)" fill="#D9D9D9" stroke="#613DFF" stroke-width="5"/>
<rect x="2.5" y="-2.5" width="159" height="173" transform="matrix(1 0 0 -1 662 660)" fill="#D9D9D9" stroke="#613DFF" stroke-width="5"/>
<rect x="2.5" y="-2.5" width="159" height="173" transform="matrix(1 0 0 -1 498 660)" fill="#D9D9D9" stroke="#613DFF" stroke-width="5"/>
<rect x="2.5" y="-2.5" width="159" height="173" transform="matrix(1 0 0 -1 334 660)" fill="#D9D9D9" stroke="#613DFF" stroke-width="5"/>
<path d="M166.5 594.5V533.5H86.5V594.5H166.5Z" fill="#D9D9D9" stroke="#613DFF" stroke-width="5"/>
<path d="M126.25 549.385C124.324 549.385 122.683 549.909 121.328 550.957C119.973 552.014 118.938 553.544 118.222 555.547C117.506 557.558 117.148 559.987 117.148 562.834C117.148 565.663 117.506 568.08 118.222 570.082C118.946 572.094 119.986 573.628 121.341 574.685C122.705 575.75 124.341 576.283 126.25 576.283C128.159 576.283 129.791 575.75 131.146 574.685C132.51 573.628 133.55 572.094 134.266 570.082C134.99 568.08 135.352 565.663 135.352 562.834C135.352 559.987 134.994 557.558 134.278 555.547C133.562 553.544 132.527 552.014 131.172 550.957C129.817 549.909 128.176 549.385 126.25 549.385ZM126.25 552.197C128.159 552.197 129.642 553.118 130.699 554.959C131.756 556.8 132.284 559.425 132.284 562.834C132.284 565.101 132.041 567.031 131.555 568.625C131.078 570.219 130.388 571.433 129.484 572.268C128.589 573.104 127.511 573.521 126.25 573.521C124.358 573.521 122.879 572.588 121.814 570.722C120.749 568.864 120.216 566.234 120.216 562.834C120.216 560.567 120.455 558.641 120.932 557.055C121.409 555.47 122.095 554.264 122.99 553.437C123.893 552.611 124.98 552.197 126.25 552.197Z" fill="#D72D2D"/>
<path d="M167.5 656.5V594.5H87.5V656.5H167.5Z" fill="#D9D9D9" stroke="#613DFF" stroke-width="5"/>
<path d="M127.25 611.199C125.324 611.199 123.683 611.723 122.328 612.772C120.973 613.828 119.938 615.358 119.222 617.361C118.506 619.372 118.148 621.801 118.148 624.648C118.148 627.478 118.506 629.894 119.222 631.897C119.946 633.908 120.986 635.442 122.341 636.499C123.705 637.564 125.341 638.097 127.25 638.097C129.159 638.097 130.791 637.564 132.146 636.499C133.51 635.442 134.55 633.908 135.266 631.897C135.99 629.894 136.352 627.478 136.352 624.648C136.352 621.801 135.994 619.372 135.278 617.361C134.562 615.358 133.527 613.828 132.172 612.772C130.817 611.723 129.176 611.199 127.25 611.199ZM127.25 614.012C129.159 614.012 130.642 614.932 131.699 616.773C132.756 618.614 133.284 621.239 133.284 624.648C133.284 626.915 133.041 628.845 132.555 630.439C132.078 632.033 131.388 633.247 130.484 634.083C129.589 634.918 128.511 635.336 127.25 635.336C125.358 635.336 123.879 634.402 122.814 632.536C121.749 630.678 121.216 628.049 121.216 624.648C121.216 622.381 121.455 620.455 121.932 618.87C122.409 617.284 123.095 616.078 123.99 615.252C124.893 614.425 125.98 614.012 127.25 614.012Z" fill="#D72D2D"/>
<path d="M82.5 656.5V594.5H2.5V656.5H82.5Z" fill="#D9D9D9" stroke="#613DFF" stroke-width="5"/>
<path d="M42.25 611.199C40.3239 611.199 38.6832 611.723 37.3281 612.772C35.973 613.828 34.9375 615.358 34.2216 617.361C33.5057 619.372 33.1477 621.801 33.1477 624.648C33.1477 627.478 33.5057 629.894 34.2216 631.897C34.946 633.908 35.9858 635.442 37.3409 636.499C38.7045 637.564 40.3409 638.097 42.25 638.097C44.1591 638.097 45.7912 637.564 47.1463 636.499C48.5099 635.442 49.5497 633.908 50.2656 631.897C50.9901 629.894 51.3523 627.478 51.3523 624.648C51.3523 621.801 50.9943 619.372 50.2784 617.361C49.5625 615.358 48.527 613.828 47.1719 612.772C45.8168 611.723 44.1761 611.199 42.25 611.199ZM42.25 614.012C44.1591 614.012 45.642 614.932 46.6989 616.773C47.7557 618.614 48.2841 621.239 48.2841 624.648C48.2841 626.915 48.0412 628.845 47.5554 630.439C47.0781 632.033 46.3878 633.247 45.4844 634.083C44.5895 634.918 43.5114 635.336 42.25 635.336C40.358 635.336 38.8793 634.402 37.8139 632.536C36.7486 630.678 36.2159 628.049 36.2159 624.648C36.2159 622.381 36.4545 620.455 36.9318 618.87C37.4091 617.284 38.0952 616.078 38.9901 615.252C39.8935 614.425 40.9801 614.012 42.25 614.012Z" fill="#D72D2D"/>
<path d="M82.5 595.5V533.5H2.5V595.5H82.5Z" fill="#D9D9D9" stroke="#613DFF" stroke-width="5"/>
<path d="M42.25 550.199C40.3239 550.199 38.6832 550.723 37.3281 551.772C35.973 552.828 34.9375 554.358 34.2216 556.361C33.5057 558.372 33.1477 560.801 33.1477 563.648C33.1477 566.478 33.5057 568.894 34.2216 570.897C34.946 572.908 35.9858 574.442 37.3409 575.499C38.7045 576.564 40.3409 577.097 42.25 577.097C44.1591 577.097 45.7912 576.564 47.1463 575.499C48.5099 574.442 49.5497 572.908 50.2656 570.897C50.9901 568.894 51.3523 566.478 51.3523 563.648C51.3523 560.801 50.9943 558.372 50.2784 556.361C49.5625 554.358 48.527 552.828 47.1719 551.772C45.8168 550.723 44.1761 550.199 42.25 550.199ZM42.25 553.012C44.1591 553.012 45.642 553.932 46.6989 555.773C47.7557 557.614 48.2841 560.239 48.2841 563.648C48.2841 565.915 48.0412 567.845 47.5554 569.439C47.0781 571.033 46.3878 572.247 45.4844 573.083C44.5895 573.918 43.5114 574.336 42.25 574.336C40.358 574.336 38.8793 573.402 37.8139 571.536C36.7486 569.678 36.2159 567.049 36.2159 563.648C36.2159 561.381 36.4545 559.455 36.9318 557.87C37.4091 556.284 38.0952 555.078 38.9901 554.252C39.8935 553.425 40.9801 553.012 42.25 553.012Z" fill="#D72D2D"/>
</svg>
